g FX_MESH_Smoke_1
v 6.1255403 -3.5050624E-07 -2.7855734E-14
v 5.3598475 -0.89428467 -7.718366E-08
v 6.1255407 -0.8942825 -5.968757E-08
v 5.3598475 -3.5050624E-07 -2.0891799E-13
v 6.1255407 1.2639678 -5.418706E-10
v 4.594155 -0.89428544 -8.273307E-08
v 5.359846 1.4476097 -1.2964908E-08
v 4.594155 -2.3367083E-07 -3.6212453E-13
v 3.8284643 -0.89428556 -7.96149E-08
v 4.594156 1.5136347 -1.8172397E-08
v 3.8284638 0 -4.5961965E-13
v 3.0627723 -0.8942853 -7.5770814E-08
v 3.8284643 1.5242821 -2.3025356E-08
v 4.5941553 2.0181797 -2.4229667E-08
v 3.8284638 2.032376 -3.07002E-08
v 3.062774 2.3822399E-07 -5.646214E-13
v 2.2970781 -0.8942847 -7.346426E-08
v 2.2970815 7.010125E-07 -6.615737E-13
v 1.5313858 -0.89428383 -6.840302E-08
v 3.0627708 1.5056854 -2.3839995E-08
v 1.5313879 9.346833E-07 -6.894294E-13
v 0.76569426 -0.89428234 -5.611685E-08
v 3.0627708 2.007581 -3.1786346E-08
v 2.2970781 1.453233 -1.7601078E-08
v 0.7656935 7.010125E-07 -6.9639336E-13
v 9.346833E-07 -0.8942803 -3.6248643E-08
v 2.297079 1.9376445 -2.3467745E-08
v 1.5313861 1.3793504 -1.0625571E-08
v 1.531386 1.8391349 -1.4167036E-08
v 0.76569426 1.2485653 -1.6040307E-09
v 1.6356958E-06 7.010125E-07 -6.9639336E-13
v -0.7656925 -0.89427775 -1.1221421E-08
v 1.6356958E-06 1.0624382 8.851118E-09
v -0.7656925 -4.6734166E-07 -6.824655E-13
v -1.5313838 -0.89427507 1.5214129E-08
v -0.7656915 0.83966273 2.011783E-08
v -1.5313838 -4.6734166E-07 -6.615737E-13
v -2.297077 -0.8942729 3.4503163E-08
v -1.5313835 0.6071081 3.157035E-08
v -2.2970774 -1.6941135E-06 -5.849704E-13
v -3.062769 -0.8942716 4.4741785E-08
v -2.297077 0.42130432 4.2551807E-08
v -3.0627694 1.1099364E-06 -4.8747535E-13
v -3.8284628 -0.89427066 4.935484E-08
v -3.0627697 0.29754314 5.2476718E-08
v -3.828462 1.1099364E-06 -4.3176386E-13
v -4.5941544 -0.89427 5.279091E-08
v -3.828462 0.21850199 6.074108E-08
v -4.5941544 4.0892394E-07 -3.2034092E-13
v -5.359848 -0.89426976 5.4178404E-08
v -4.594155 0.16050658 6.6753664E-08
v -5.359847 -5.8417708E-08 -2.2284587E-13
v -6.12554 -0.89426965 5.5474768E-08
v -6.12554 5.8417708E-08 -1.3927867E-13
v -5.3598475 0.13267818 6.990029E-08
v -6.12554 0.12665479 6.95852E-08
v -6.12554 0.16887298 9.278043E-08
v -5.3598475 0.17690393 9.3200555E-08
v -6.12554 0.21109122 1.1597566E-07
v -4.594155 0.21400864 8.9005155E-08
v -5.359848 0.22112969 1.1650081E-07
v -6.12554 0.25330946 1.391709E-07
v -5.359848 0.26535544 1.3980105E-07
v -4.5941544 0.2675107 1.11256654E-07
v -4.5941544 0.32101277 1.3350815E-07
v -3.828462 0.291336 8.098841E-08
v -3.828462 0.21850199 6.074108E-08
v -4.594155 0.16050658 6.6753664E-08
v -3.0627697 0.29754314 5.2476718E-08
v -3.0627694 0.39672425 6.996932E-08
v -2.297077 0.42130432 4.2551807E-08
v -2.297077 0.5617397 5.6736173E-08
v -1.5313835 0.6071081 3.157035E-08
v -1.5313843 0.8094786 4.2094225E-08
v -0.7656915 0.83966273 2.011783E-08
v -0.7656912 1.1195502 2.6824159E-08
v -3.8284616 0.36417004 1.0123573E-07
v -4.5941544 0.32101277 1.3350815E-07
v -3.0627694 0.39672425 6.996932E-08
v -3.8284616 0.43700406 1.2148307E-07
v -3.0627687 0.49590543 8.7461906E-08
v -3.0627687 0.5950866 1.049545E-07
v -2.297077 0.5617397 5.6736173E-08
v -2.2970765 0.70217514 7.0920535E-08
v -1.5313843 0.8094786 4.2094225E-08
v -1.5313851 1.011849 5.2618105E-08
v -0.7656909 1.3994378 3.3530494E-08
v 1.4799152E-06 1.4165843 1.180192E-08
v 1.3241346E-06 1.7707301 1.4752724E-08
v 0.76569414 1.6647524 -2.1383082E-09
v 0.765694 2.0809395 -2.6725857E-09
v 1.531386 1.8391349 -1.4167036E-08
v 1.531386 2.2989194 -1.7708503E-08
v 2.29708 2.422056 -2.9334416E-08
v 3.0627708 2.5094764 -3.9732694E-08
v 3.8284628 2.5404696 -3.837505E-08
v 3.0627708 3.0113723 -4.7679045E-08
v 3.828462 3.0485635 -4.6049898E-08
v 4.5941553 2.5227244 -3.028693E-08
v 4.5941553 2.0181797 -2.4229667E-08
v 5.3598495 2.4126842 -2.160795E-08
v 5.359848 1.9301469 -1.7286428E-08
v 6.1255407 2.1066127 -9.0311303E-10
v 6.1255407 1.6852903 -7.224918E-10
v 1.5313861 1.3793504 -1.0625571E-08
v 0.76569414 1.6647524 -2.1383082E-09
v 3.828462 3.0485635 -4.6049898E-08
v 4.5941553 2.5227244 -3.028693E-08
v 4.594155 3.0272694 -3.6344197E-08
v 5.359848 1.9301469 -1.7286428E-08
v 4.594156 1.5136347 -1.8172397E-08
v 5.359846 1.4476097 -1.2964908E-08
v -3.0627687 0.5950866 1.049545E-07
v -3.0627687 0.49590543 8.7461906E-08
v -2.2970765 0.8426104 8.51049E-08
v -2.2970765 0.8426104 8.51049E-08
v -2.2970765 0.70217514 7.0920535E-08
v -1.5313851 1.011849 5.2618105E-08
v -1.5313858 1.2142196 6.314198E-08
v -0.7656909 1.3994378 3.3530494E-08
v -0.76569057 1.6793255 4.023683E-08
v 1.6356958E-06 1.0624382 8.851118E-09
v -0.7656912 1.1195502 2.6824159E-08
v -0.7656915 0.83966273 2.011783E-08
v -0.76569057 1.6793255 4.023683E-08
v 1.3241346E-06 1.7707301 1.4752724E-08
v 1.1683542E-06 2.1248765 1.7703531E-08
v 1.1683542E-06 2.1248765 1.7703531E-08
v 0.765694 2.0809395 -2.6725857E-09
v 0.76569396 2.4971266 -3.2068634E-09
v 0.76569396 2.4971266 -3.2068634E-09
v 1.531386 2.2989194 -1.7708503E-08
v 1.5313858 2.7587037 -2.1249967E-08
v 1.5313858 2.7587037 -2.1249967E-08
v 2.29708 2.422056 -2.9334416E-08
v 2.2970805 2.9064674 -3.520108E-08
v 2.2970805 2.9064674 -3.520108E-08
v 3.0627708 2.5094764 -3.9732694E-08
v 3.0627708 3.0113723 -4.7679045E-08
v 4.5941553 2.5227244 -3.028693E-08
v 5.3598495 2.4126842 -2.160795E-08
v 5.3598504 2.8952212 -2.5929468E-08
v 4.594155 3.0272694 -3.6344197E-08
v 6.1255407 1.6852903 -7.224918E-10
v 5.359848 1.9301469 -1.7286428E-08
v 5.359846 1.4476097 -1.2964908E-08
v 6.1255407 1.2639678 -5.418706E-10
v 5.3598504 2.8952212 -2.5929468E-08
v 5.3598495 2.4126842 -2.160795E-08
v 6.1255407 2.1066127 -9.0311303E-10
v 6.1255403 2.5279353 -1.0837343E-09
v 0.76569426 1.2485653 -1.6040307E-09
v 1.4799152E-06 1.4165843 1.180192E-08
vt 1 0.5
vt 0.92356896 0.25
vt 1 0.25
vt 0.92356896 0.5
vt 1 0.75
vt 0.84713817 0.25
vt 0.92356896 0.75
vt 0.84713817 0.5
vt 0.77070713 0.25
vt 0.84713817 0.75
vt 0.77070713 0.5
vt 0.6942761 0.25
vt 0.77070713 0.75
vt 0.84713817 0.8333334
vt 0.77070713 0.8333334
vt 0.6942761 0.5
vt 0.61784524 0.25
vt 0.61784524 0.5
vt 0.5414142 0.25
vt 0.6942761 0.75
vt 0.5414142 0.5
vt 0.46498328 0.25
vt 0.6942761 0.8333334
vt 0.61784524 0.75
vt 0.46498328 0.5
vt 0.38855225 0.25
vt 0.61784524 0.8333334
vt 0.5414142 0.75
vt 0.5414142 0.8333334
vt 0.46498328 0.75
vt 0.38855225 0.5
vt 0.31212133 0.25
vt 0.38855225 0.75
vt 0.31212133 0.5
vt 0.23569036 0.25
vt 0.31212133 0.75
vt 0.23569036 0.5
vt 0.17586939 0.25
vt 0.23569036 0.75
vt 0.17586939 0.5
vt 0.14069551 0.25
vt 0.17586939 0.75
vt 0.14069551 0.5
vt 0.105521634 0.25
vt 0.14069551 0.75
vt 0.105521634 0.5
vt 0.070347756 0.25
vt 0.105521634 0.75
vt 0.070347756 0.5
vt 0.035173878 0.25
vt 0.070347756 0.75
vt 0.035173878 0.5
vt 0 0.25
vt 0 0.5
vt 0.035173878 0.75
vt 0 0.75
vt 0 0.8333333
vt 0.035173878 0.8333334
vt 0 0.9166666
vt 0.070347756 0.8333334
vt 0.035173878 0.9166667
vt 0 1
vt 0.035173878 1
vt 0.070347756 0.9166667
vt 0.070347756 1
vt 0.105521634 0.8333334
vt 0.105521634 0.75
vt 0.070347756 0.75
vt 0.14069551 0.75
vt 0.14069551 0.8333334
vt 0.17586939 0.75
vt 0.17586939 0.8333334
vt 0.23569036 0.75
vt 0.23569036 0.8333334
vt 0.31212133 0.75
vt 0.31212133 0.8333334
vt 0.105521634 0.9166667
vt 0.070347756 1
vt 0.14069551 0.8333334
vt 0.105521634 1
vt 0.14069551 0.9166667
vt 0.14069551 1
vt 0.17586939 0.8333334
vt 0.17586939 0.9166667
vt 0.23569036 0.8333334
vt 0.23569036 0.9166667
vt 0.31212133 0.9166667
vt 0.38855225 0.8333334
vt 0.38855225 0.9166667
vt 0.46498328 0.8333334
vt 0.46498328 0.9166667
vt 0.5414142 0.8333334
vt 0.5414142 0.9166667
vt 0.61784524 0.9166667
vt 0.6942761 0.9166667
vt 0.77070713 0.9166667
vt 0.6942761 1
vt 0.77070713 1
vt 0.84713817 0.9166667
vt 0.84713817 0.8333334
vt 0.92356896 0.9166667
vt 0.92356896 0.8333334
vt 1 0.9166667
vt 1 0.8333334
vt 0.5414142 0.75
vt 0.46498328 0.8333334
vt 0.77070713 1
vt 0.84713817 0.9166667
vt 0.84713817 1
vt 0.92356896 0.8333334
vt 0.84713817 0.75
vt 0.92356896 0.75
vt 0.14069551 1
vt 0.14069551 0.9166667
vt 0.17586939 1
vt 0.17586939 1
vt 0.17586939 0.9166667
vt 0.23569036 0.9166667
vt 0.23569036 1
vt 0.31212133 0.9166667
vt 0.31212133 1
vt 0.38855225 0.75
vt 0.31212133 0.8333334
vt 0.31212133 0.75
vt 0.31212133 1
vt 0.38855225 0.9166667
vt 0.38855225 1
vt 0.38855225 1
vt 0.46498328 0.9166667
vt 0.46498328 1
vt 0.46498328 1
vt 0.5414142 0.9166667
vt 0.5414142 1
vt 0.5414142 1
vt 0.61784524 0.9166667
vt 0.61784524 1
vt 0.61784524 1
vt 0.6942761 0.9166667
vt 0.6942761 1
vt 0.84713817 0.9166667
vt 0.92356896 0.9166667
vt 0.92356896 1
vt 0.84713817 1
vt 1 0.8333334
vt 0.92356896 0.8333334
vt 0.92356896 0.75
vt 1 0.75
vt 0.92356896 1
vt 0.92356896 0.9166667
vt 1 0.9166667
vt 1 1
vt 0.46498328 0.75
vt 0.38855225 0.8333334
vn -0 0 -1
vn -0 0 -1
vn -0 0 -1
vn -0 0 -1
vn -0 0 -1
vn -0 0 -1
vn -0 0 -1
vn -0 0 -1
vn -0 0 -1
vn -0 0 -1
vn -0 0 -1
vn -0 0 -1
vn -0 0 -1
vn -0 0 -1
vn -0 0 -1
vn -0 0 -1
vn -0 0 -1
vn -0 0 -1
vn -0 0 -1
vn -0 0 -1
vn -0 0 -1
vn -0 0 -1
vn -0 0 -1
vn -0 0 -1
vn -0 0 -1
vn -0 0 -1
vn -0 0 -1
vn -0 0 -1
vn -0 0 -1
vn -0 0 -1
vn -0 0 -1
vn -0 0 -1
vn -0 0 -1
vn -0 0 -1
vn -0 0 -1
vn -0 0 -1
vn -0 0 -1
vn -0 0 -1
vn -0 0 -1
vn -0 0 -1
vn -0 0 -1
vn -0 0 -1
vn -0 0 -1
vn -0 0 -1
vn -0 0 -1
vn -0 0 -1
vn -0 0 -1
vn -0 0 -1
vn -0 0 -1
vn -0 0 -1
vn -0 0 -1
vn -0 0 -1
vn -0 0 -1
vn -0 0 -1
vn -0 0 -1
vn -0 0 -1
vn -0 0 -1
vn -0 0 -1
vn -0 0 -1
vn -0 0 -1
vn -0 0 -1
vn -0 0 -1
vn -0 0 -1
vn -0 0 -1
vn -0 0 -1
vn -0 0 -1
vn -0 0 -1
vn -0 0 -1
vn -0 0 -1
vn -0 0 -1
vn -0 0 -1
vn -0 0 -1
vn -0 0 -1
vn -0 0 -1
vn -0 0 -1
vn -0 0 -1
vn -0 0 -1
vn -0 0 -1
vn -0 0 -1
vn -0 0 -1
vn -0 0 -1
vn -0 0 -1
vn -0 0 -1
vn -0 0 -1
vn -0 0 -1
vn -0 0 -1
vn -0 0 -1
vn -0 0 -1
vn -0 0 -1
vn -0 0 -1
vn -0 0 -1
vn -0 0 -1
vn -0 0 -1
vn -0 0 -1
vn -0 0 -1
vn -0 0 -1
vn -0 0 -1
vn -0 0 -1
vn -0 0 -1
vn -0 0 -1
vn -0 0 -1
vn -0 0 -1
vn -0 0 -1
vn -0 0 -1
vn -0 0 -1
vn -0 0 -1
vn -0 0 -1
vn -0 0 -1
vn -0 0 -1
vn -0 0 -1
vn -0 0 -1
vn -0 0 -1
vn -0 0 -1
vn -0 0 -1
vn -0 0 -1
vn -0 0 -1
vn -0 0 -1
vn -0 0 -1
vn -0 0 -1
vn -0 0 -1
vn -0 0 -1
vn -0 0 -1
vn -0 0 -1
vn -0 0 -1
vn -0 0 -1
vn -0 0 -1
vn -0 0 -1
vn -0 0 -1
vn -0 0 -1
vn -0 0 -1
vn -0 0 -1
vn -0 0 -1
vn -0 0 -1
vn -0 0 -1
vn -0 0 -1
vn -0 0 -1
vn -0 0 -1
vn -0 0 -1
vn -0 0 -1
vn -0 0 -1
vn -0 0 -1
vn -0 0 -1
vn -0 0 -1
vn -0 0 -1
vn -0 0 -1
vn -0 0 -1
vn -0 0 -1
vn -0 0 -1
vn -0 0 -1
vn -0 0 -1
vn -0 0 -1
vn -0 0 -1
vn -0 0 -1
g FX_MESH_Smoke_1_0
f 3/3/3 2/2/2 1/1/1
f 2/2/2 4/4/4 1/1/1
f 1/1/1 4/4/4 5/5/5
f 2/2/2 6/6/6 4/4/4
f 4/4/4 7/7/7 5/5/5
f 6/6/6 8/8/8 4/4/4
f 4/4/4 8/8/8 7/7/7
f 6/6/6 9/9/9 8/8/8
f 8/8/8 10/10/10 7/7/7
f 9/9/9 11/11/11 8/8/8
f 8/8/8 11/11/11 10/10/10
f 9/9/9 12/12/12 11/11/11
f 11/11/11 13/13/13 10/10/10
f 10/10/10 13/13/13 14/14/14
f 13/13/13 15/15/15 14/14/14
f 12/12/12 16/16/16 11/11/11
f 11/11/11 16/16/16 13/13/13
f 12/12/12 17/17/17 16/16/16
f 17/17/17 18/18/18 16/16/16
f 17/17/17 19/19/19 18/18/18
f 16/16/16 20/20/20 13/13/13
f 16/16/16 18/18/18 20/20/20
f 19/19/19 21/21/21 18/18/18
f 19/19/19 22/22/22 21/21/21
f 23/23/23 15/15/15 13/13/13
f 20/20/20 23/23/23 13/13/13
f 18/18/18 24/24/24 20/20/20
f 18/18/18 21/21/21 24/24/24
f 22/22/22 25/25/25 21/21/21
f 22/22/22 26/26/26 25/25/25
f 27/27/27 23/23/23 20/20/20
f 24/24/24 27/27/27 20/20/20
f 21/21/21 28/28/28 24/24/24
f 21/21/21 25/25/25 28/28/28
f 28/28/28 29/29/29 24/24/24
f 29/29/29 27/27/27 24/24/24
f 25/25/25 30/30/30 28/28/28
f 26/26/26 31/31/31 25/25/25
f 25/25/25 31/31/31 30/30/30
f 26/26/26 32/32/32 31/31/31
f 31/31/31 33/33/33 30/30/30
f 32/32/32 34/34/34 31/31/31
f 31/31/31 34/34/34 33/33/33
f 32/32/32 35/35/35 34/34/34
f 34/34/34 36/36/36 33/33/33
f 35/35/35 37/37/37 34/34/34
f 34/34/34 37/37/37 36/36/36
f 35/35/35 38/38/38 37/37/37
f 37/37/37 39/39/39 36/36/36
f 38/38/38 40/40/40 37/37/37
f 37/37/37 40/40/40 39/39/39
f 38/38/38 41/41/41 40/40/40
f 40/40/40 42/42/42 39/39/39
f 41/41/41 43/43/43 40/40/40
f 40/40/40 43/43/43 42/42/42
f 41/41/41 44/44/44 43/43/43
f 43/43/43 45/45/45 42/42/42
f 44/44/44 46/46/46 43/43/43
f 43/43/43 46/46/46 45/45/45
f 44/44/44 47/47/47 46/46/46
f 46/46/46 48/48/48 45/45/45
f 47/47/47 49/49/49 46/46/46
f 46/46/46 49/49/49 48/48/48
f 47/47/47 50/50/50 49/49/49
f 49/49/49 51/51/51 48/48/48
f 50/50/50 52/52/52 49/49/49
f 49/49/49 52/52/52 51/51/51
f 50/50/50 53/53/53 52/52/52
f 53/53/53 54/54/54 52/52/52
f 52/52/52 54/54/54 55/55/55
f 52/52/52 55/55/55 51/51/51
f 54/54/54 56/56/56 55/55/55
f 56/56/56 57/57/57 55/55/55
f 55/55/55 58/58/58 51/51/51
f 57/57/57 58/58/58 55/55/55
f 57/57/57 59/59/59 58/58/58
f 58/58/58 60/60/60 51/51/51
f 59/59/59 61/61/61 58/58/58
f 58/58/58 61/61/61 60/60/60
f 61/61/61 59/59/59 62/62/62
f 63/63/63 61/61/61 62/62/62
f 64/64/64 61/61/61 63/63/63
f 61/61/61 64/64/64 60/60/60
f 65/65/65 64/64/64 63/63/63
f 60/60/60 64/64/64 66/66/66
f 60/60/60 66/66/66 67/67/67
f 68/68/68 60/60/60 67/67/67
f 67/67/67 66/66/66 69/69/69
f 66/66/66 70/70/70 69/69/69
f 69/69/69 70/70/70 71/71/71
f 70/70/70 72/72/72 71/71/71
f 71/71/71 72/72/72 73/73/73
f 72/72/72 74/74/74 73/73/73
f 73/73/73 74/74/74 75/75/75
f 74/74/74 76/76/76 75/75/75
f 64/64/64 77/77/77 66/66/66
f 77/77/77 64/64/64 78/78/78
f 66/66/66 77/77/77 79/79/79
f 80/80/80 77/77/77 78/78/78
f 77/77/77 81/81/81 79/79/79
f 81/81/81 77/77/77 80/80/80
f 82/82/82 81/81/81 80/80/80
f 79/79/79 81/81/81 83/83/83
f 81/81/81 84/84/84 83/83/83
f 83/83/83 84/84/84 85/85/85
f 85/85/85 86/86/86 76/76/76
f 84/84/84 86/86/86 85/85/85
f 86/86/86 87/87/87 76/76/76
f 76/76/76 87/87/87 88/88/88
f 87/87/87 89/89/89 88/88/88
f 88/88/88 89/89/89 90/90/90
f 89/89/89 91/91/91 90/90/90
f 90/90/90 91/91/91 92/92/92
f 91/91/91 93/93/93 92/92/92
f 92/92/92 93/93/93 27/27/27
f 93/93/93 94/94/94 27/27/27
f 27/27/27 94/94/94 23/23/23
f 94/94/94 95/95/95 23/23/23
f 23/23/23 95/95/95 15/15/15
f 95/95/95 96/96/96 15/15/15
f 96/96/96 95/95/95 97/97/97
f 98/98/98 96/96/96 97/97/97
f 15/15/15 96/96/96 99/99/99
f 100/100/100 15/15/15 99/99/99
f 100/100/100 99/99/99 101/101/101
f 102/102/102 100/100/100 101/101/101
f 102/102/102 101/101/101 103/103/103
f 104/104/104 102/102/102 103/103/103
f 106/106/106 92/92/92 105/105/105
f 30/30/30 106/106/106 105/105/105
f 108/108/108 96/96/96 107/107/107
f 109/109/109 108/108/108 107/107/107
f 111/111/111 100/100/100 110/110/110
f 112/112/112 111/111/111 110/110/110
f 84/84/84 114/114/114 113/113/113
f 115/115/115 84/84/84 113/113/113
f 118/118/118 117/117/117 116/116/116
f 119/119/119 118/118/118 116/116/116
f 120/120/120 118/118/118 119/119/119
f 121/121/121 120/120/120 119/119/119
f 124/124/124 123/123/123 122/122/122
f 123/123/123 88/88/88 122/122/122
f 127/127/127 126/126/126 125/125/125
f 126/126/126 87/87/87 125/125/125
f 130/130/130 129/129/129 128/128/128
f 129/129/129 89/89/89 128/128/128
f 133/133/133 132/132/132 131/131/131
f 132/132/132 91/91/91 131/131/131
f 136/136/136 135/135/135 134/134/134
f 135/135/135 93/93/93 134/134/134
f 139/139/139 138/138/138 137/137/137
f 138/138/138 94/94/94 137/137/137
f 142/142/142 141/141/141 140/140/140
f 143/143/143 142/142/142 140/140/140
f 146/146/146 145/145/145 144/144/144
f 147/147/147 146/146/146 144/144/144
f 150/150/150 149/149/149 148/148/148
f 151/151/151 150/150/150 148/148/148
f 33/33/33 153/153/153 152/152/152
f 153/153/153 90/90/90 152/152/152
