g FX_Ring_plane_02
v 0.29609436 1.1781466E-07 -8.147303E-15
v 0.09884881 1.1399426E-07 -8.309369E-15
v 0.096949436 -0.019284297 -3.1633012E-09
v 0.29040504 -0.057764985 -1.8133427E-08
v 0.09132438 -0.03782764 -6.2050334E-09
v 0.2735556 -0.11331024 -3.5570004E-08
v 0.082189776 -0.054917313 -9.0083105E-09
v 0.2461935 -0.16450109 -5.163964E-08
v 0.0698967 -0.06989643 -1.14653975E-08
v 0.20937045 -0.20937014 -6.572478E-08
v 0.05491751 -0.08218957 -1.348188E-08
v 0.16450135 -0.24619325 -7.7284156E-08
v 0.03782788 -0.09132414 -1.4980262E-08
v 0.11331055 -0.27355534 -8.5873566E-08
v 0.019284537 -0.096949205 -1.5902959E-08
v 0.05776527 -0.2904048 -9.1162875E-08
v 1.02266085E-07 -0.09884862 -1.6214521E-08
v 1.09500874E-07 -0.29609418 -9.294889E-08
v -0.019284334 -0.096949205 -1.5902959E-08
v -0.057765063 -0.2904048 -9.1162875E-08
v -0.037827633 -0.09132421 -1.4980271E-08
v -0.11331019 -0.27355534 -8.5873566E-08
v -0.054917295 -0.08218962 -1.3481886E-08
v -0.164501 -0.24619332 -7.7284184E-08
v -0.06989648 -0.06989648 -1.1465401E-08
v -0.20937015 -0.20937018 -6.5724805E-08
v -0.082189575 -0.054917313 -9.0083105E-09
v -0.2461933 -0.16450109 -5.1639642E-08
v -0.09132418 -0.03782764 -6.2050334E-09
v -0.27355537 -0.11331024 -3.5570004E-08
v -0.096949264 -0.01928432 -3.1633047E-09
v -0.2904048 -0.057765055 -1.8133454E-08
v -0.09884862 1.1399426E-07 -9.2269484E-15
v -0.29609424 1.1781466E-07 -1.6273151E-14
v -0.096949264 0.019284546 3.163286E-09
v -0.2904048 0.057765257 1.813342E-08
v -0.09132422 0.037827894 6.205017E-09
v -0.2735554 0.11331045 3.5569975E-08
v -0.08218962 0.054917492 9.008291E-09
v -0.2461933 0.1645013 5.1639624E-08
v -0.06989648 0.069896705 1.1465383E-08
v -0.20937015 0.20937046 6.572478E-08
v -0.054917306 0.08218983 1.3481866E-08
v -0.16450116 0.24619354 7.728418E-08
v -0.037827678 0.09132443 1.498025E-08
v -0.11331031 0.27355558 8.587356E-08
v -0.019284327 0.09694944 1.5902943E-08
v -0.05776503 0.2904051 9.116287E-08
v 9.6766506E-08 0.098848835 1.6214502E-08
v 9.302728E-08 0.29609454 9.294887E-08
v 0.019284515 0.09694944 1.5902943E-08
v 0.057765216 0.2904051 9.116287E-08
v 0.037827853 0.09132443 1.498025E-08
v 0.11331048 0.27355555 8.587355E-08
v 0.0549175 0.08218983 1.3481868E-08
v 0.16450128 0.24619354 7.728417E-08
v 0.0698967 0.069896705 1.1465383E-08
v 0.20937039 0.20937046 6.572478E-08
v 0.082189776 0.05491751 9.008291E-09
v 0.24619351 0.16450135 5.1639624E-08
v 0.09132438 0.03782789 6.205018E-09
v 0.27355558 0.11331054 3.556999E-08
v 0.096949436 0.019284546 3.163286E-09
v 0.290405 0.057765257 1.8133418E-08
v 0.09884881 1.1399426E-07 -8.309369E-15
v 0.29609436 1.1781466E-07 -8.147303E-15
v 0.51280004 0.10200238 3.2020182E-08
v 0.290405 0.057765257 1.8133418E-08
v 0.52284634 1.1920929E-07 -7.77849E-15
v 0.48304716 0.2000848 6.280985E-08
v 0.27355558 0.11331054 3.556999E-08
v 0.290405 0.057765257 1.8133418E-08
v 0.51280004 0.10200238 3.2020182E-08
v 0.43473092 0.29047805 9.1185775E-08
v 0.24619351 0.16450135 5.1639624E-08
v 0.27355558 0.11331054 3.556999E-08
v 0.48304716 0.2000848 6.280985E-08
v 0.36970824 0.3697084 1.1605747E-07
v 0.20937039 0.20937046 6.572478E-08
v 0.24619351 0.16450135 5.1639624E-08
v 0.43473092 0.29047805 9.1185775E-08
v 0.29047796 0.43473095 1.3646918E-07
v 0.16450128 0.24619354 7.728417E-08
v 0.20937039 0.20937046 6.572478E-08
v 0.36970824 0.3697084 1.1605747E-07
v 0.2000847 0.48304704 1.516364E-07
v 0.11331048 0.27355555 8.587355E-08
v 0.16450128 0.24619354 7.728417E-08
v 0.29047796 0.43473095 1.3646918E-07
v 0.10200232 0.51280016 1.6097631E-07
v 0.057765216 0.2904051 9.116287E-08
v 0.11331048 0.27355555 8.587355E-08
v 0.2000847 0.48304704 1.516364E-07
v 8.8298165E-08 0.52284664 1.6413007E-07
v 9.302728E-08 0.29609454 9.294887E-08
v 0.057765216 0.2904051 9.116287E-08
v 0.10200232 0.51280016 1.6097631E-07
v -0.102002144 0.51280016 1.6097631E-07
v -0.05776503 0.2904051 9.116287E-08
v 9.302728E-08 0.29609454 9.294887E-08
v 8.8298165E-08 0.52284664 1.6413007E-07
v -0.20008455 0.48304704 1.516364E-07
v -0.11331031 0.27355558 8.587356E-08
v -0.05776503 0.2904051 9.116287E-08
v -0.102002144 0.51280016 1.6097631E-07
v -0.29047784 0.43473095 1.3646918E-07
v -0.16450116 0.24619354 7.728418E-08
v -0.11331031 0.27355558 8.587356E-08
v -0.20008455 0.48304704 1.516364E-07
v -0.369708 0.3697084 1.1605747E-07
v -0.20937015 0.20937046 6.572478E-08
v -0.16450116 0.24619354 7.728418E-08
v -0.29047784 0.43473095 1.3646918E-07
v -0.43473068 0.29047796 9.1185775E-08
v -0.2461933 0.1645013 5.1639624E-08
v -0.20937015 0.20937046 6.572478E-08
v -0.369708 0.3697084 1.1605747E-07
v -0.48304692 0.2000846 6.2809825E-08
v -0.2735554 0.11331045 3.5569975E-08
v -0.2461933 0.1645013 5.1639624E-08
v -0.43473068 0.29047796 9.1185775E-08
v -0.5127998 0.10200238 3.2020182E-08
v -0.2904048 0.057765257 1.813342E-08
v -0.2735554 0.11331045 3.5569975E-08
v -0.48304692 0.2000846 6.2809825E-08
v -0.5228462 1.1920929E-07 -2.2127192E-14
v -0.29609424 1.1781466E-07 -1.6273151E-14
v -0.2904048 0.057765257 1.813342E-08
v -0.5127998 0.10200238 3.2020182E-08
v -0.5127998 -0.1020022 -3.202023E-08
v -0.2904048 -0.057765055 -1.8133454E-08
v -0.29609424 1.1781466E-07 -1.6273151E-14
v -0.5228462 1.1920929E-07 -2.2127192E-14
v -0.48304692 -0.20008445 -6.280987E-08
v -0.27355537 -0.11331024 -3.5570004E-08
v -0.2904048 -0.057765055 -1.8133454E-08
v -0.5127998 -0.1020022 -3.202023E-08
v -0.43473068 -0.29047775 -9.118579E-08
v -0.2461933 -0.16450109 -5.1639642E-08
v -0.27355537 -0.11331024 -3.5570004E-08
v -0.48304692 -0.20008445 -6.280987E-08
v -0.369708 -0.36970806 -1.1605752E-07
v -0.20937015 -0.20937018 -6.5724805E-08
v -0.2461933 -0.16450109 -5.1639642E-08
v -0.43473068 -0.29047775 -9.118579E-08
v -0.29047757 -0.4347307 -1.3646918E-07
v -0.164501 -0.24619332 -7.7284184E-08
v -0.20937015 -0.20937018 -6.5724805E-08
v -0.369708 -0.36970806 -1.1605752E-07
v -0.20008436 -0.48304683 -1.516364E-07
v -0.11331019 -0.27355534 -8.5873566E-08
v -0.164501 -0.24619332 -7.7284184E-08
v -0.29047757 -0.4347307 -1.3646918E-07
v -0.1020022 -0.5127998 -1.6097631E-07
v -0.057765063 -0.2904048 -9.1162875E-08
v -0.11331019 -0.27355534 -8.5873566E-08
v -0.20008436 -0.48304683 -1.516364E-07
v 1.1738739E-07 -0.52284616 -1.6413007E-07
v 1.09500874E-07 -0.29609418 -9.294889E-08
v -0.057765063 -0.2904048 -9.1162875E-08
v -0.1020022 -0.5127998 -1.6097631E-07
v 0.10200243 -0.5127998 -1.6097631E-07
v 0.05776527 -0.2904048 -9.1162875E-08
v 1.09500874E-07 -0.29609418 -9.294889E-08
v 1.1738739E-07 -0.52284616 -1.6413007E-07
v 0.20008484 -0.48304683 -1.516364E-07
v 0.11331055 -0.27355534 -8.5873566E-08
v 0.05776527 -0.2904048 -9.1162875E-08
v 0.10200243 -0.5127998 -1.6097631E-07
v 0.29047808 -0.4347306 -1.3646913E-07
v 0.16450135 -0.24619325 -7.7284156E-08
v 0.11331055 -0.27355534 -8.5873566E-08
v 0.20008484 -0.48304683 -1.516364E-07
v 0.3697084 -0.369708 -1.1605746E-07
v 0.20937045 -0.20937014 -6.572478E-08
v 0.16450135 -0.24619325 -7.7284156E-08
v 0.29047808 -0.4347306 -1.3646913E-07
v 0.43473092 -0.29047775 -9.118579E-08
v 0.2461935 -0.16450109 -5.163964E-08
v 0.20937045 -0.20937014 -6.572478E-08
v 0.3697084 -0.369708 -1.1605746E-07
v 0.48304716 -0.20008445 -6.280987E-08
v 0.2735556 -0.11331024 -3.5570004E-08
v 0.2461935 -0.16450109 -5.163964E-08
v 0.43473092 -0.29047775 -9.118579E-08
v 0.51280004 -0.102002084 -3.2020182E-08
v 0.29040504 -0.057764985 -1.8133427E-08
v 0.2735556 -0.11331024 -3.5570004E-08
v 0.48304716 -0.20008445 -6.280987E-08
v 0.52284634 1.1920929E-07 -7.77849E-15
v 0.29040504 -0.057764985 -1.8133427E-08
v 0.51280004 -0.102002084 -3.2020182E-08
vt 1 0.48396254
vt 1.0000005 0.00028917193
vt 0.96876395 0.00028909743
vt 0.96875 0.48396254
vt 0.9375274 0.00028909743
vt 0.9375 0.48396254
vt 0.9062909 0.00028912723
vt 0.90625 0.48396254
vt 0.87505436 0.00028906763
vt 0.875 0.48396254
vt 0.84381783 0.00028911233
vt 0.84375 0.48396254
vt 0.8125813 0.00028908253
vt 0.8125 0.48396254
vt 0.7813448 0.00028906763
vt 0.78125 0.48396254
vt 0.75010824 0.00028918684
vt 0.75 0.48396254
vt 0.7188717 0.00028903782
vt 0.71875 0.48396254
vt 0.6876352 0.00028917193
vt 0.6875 0.48396254
vt 0.65639865 0.00028920174
vt 0.65625 0.48396254
vt 0.6251621 0.00028912723
vt 0.625 0.48396254
vt 0.5939256 0.00028911233
vt 0.59375 0.48396254
vt 0.56268907 0.00028908253
vt 0.5625 0.48396254
vt 0.53145254 0.00028914213
vt 0.53125 0.48396254
vt 0.500216 0.00028909743
vt 0.5 0.48396254
vt 0.46897948 0.00028914213
vt 0.46875 0.48396254
vt 0.43774298 0.00028914213
vt 0.4375 0.48396254
vt 0.40650648 0.00028911233
vt 0.40625 0.48396254
vt 0.37526998 0.00028909743
vt 0.375 0.48396254
vt 0.34403348 0.00028909743
vt 0.34375 0.48396254
vt 0.31279698 0.00028917193
vt 0.3125 0.48396254
vt 0.28156048 0.00028903782
vt 0.28125 0.48396254
vt 0.25032398 0.00028906763
vt 0.25 0.48396254
vt 0.21908748 0.00028903782
vt 0.21875 0.48396254
vt 0.18785098 0.00028918684
vt 0.1875 0.48396254
vt 0.15661448 0.00028911233
vt 0.15625 0.48396254
vt 0.12537798 0.00028909743
vt 0.125 0.48396254
vt 0.09414148 0.00028906763
vt 0.09375 0.48396254
vt 0.062904984 0.00028909743
vt 0.0625 0.48396254
vt 0.031668484 0.00028911233
vt 0.03125 0.48396254
vt 0.0004319828 0.00028917193
vt 0 0.48396254
vt 0.03125 1
vt 0.03125 0.48396254
vt 0 1
vt 0.0625 1
vt 0.0625 0.48396254
vt 0.03125 0.48396254
vt 0.03125 1
vt 0.09375 1
vt 0.09375 0.48396254
vt 0.0625 0.48396254
vt 0.0625 1
vt 0.125 1
vt 0.125 0.48396254
vt 0.09375 0.48396254
vt 0.09375 1
vt 0.15625 1
vt 0.15625 0.48396254
vt 0.125 0.48396254
vt 0.125 1
vt 0.1875 1
vt 0.1875 0.48396254
vt 0.15625 0.48396254
vt 0.15625 1
vt 0.21875 1
vt 0.21875 0.48396254
vt 0.1875 0.48396254
vt 0.1875 1
vt 0.25 1
vt 0.25 0.48396254
vt 0.21875 0.48396254
vt 0.21875 1
vt 0.28125 1
vt 0.28125 0.48396254
vt 0.25 0.48396254
vt 0.25 1
vt 0.3125 1
vt 0.3125 0.48396254
vt 0.28125 0.48396254
vt 0.28125 1
vt 0.34375 1
vt 0.34375 0.48396254
vt 0.3125 0.48396254
vt 0.3125 1
vt 0.375 1
vt 0.375 0.48396254
vt 0.34375 0.48396254
vt 0.34375 1
vt 0.40625 1
vt 0.40625 0.48396254
vt 0.375 0.48396254
vt 0.375 1
vt 0.4375 1
vt 0.4375 0.48396254
vt 0.40625 0.48396254
vt 0.40625 1
vt 0.46875 1
vt 0.46875 0.48396254
vt 0.4375 0.48396254
vt 0.4375 1
vt 0.5 1
vt 0.5 0.48396254
vt 0.46875 0.48396254
vt 0.46875 1
vt 0.53125 1
vt 0.53125 0.48396254
vt 0.5 0.48396254
vt 0.5 1
vt 0.5625 1
vt 0.5625 0.48396254
vt 0.53125 0.48396254
vt 0.53125 1
vt 0.59375 1
vt 0.59375 0.48396254
vt 0.5625 0.48396254
vt 0.5625 1
vt 0.625 1
vt 0.625 0.48396254
vt 0.59375 0.48396254
vt 0.59375 1
vt 0.65625 1
vt 0.65625 0.48396254
vt 0.625 0.48396254
vt 0.625 1
vt 0.6875 1
vt 0.6875 0.48396254
vt 0.65625 0.48396254
vt 0.65625 1
vt 0.71875 1
vt 0.71875 0.48396254
vt 0.6875 0.48396254
vt 0.6875 1
vt 0.75 1
vt 0.75 0.48396254
vt 0.71875 0.48396254
vt 0.71875 1
vt 0.78125 1
vt 0.78125 0.48396254
vt 0.75 0.48396254
vt 0.75 1
vt 0.8125 1
vt 0.8125 0.48396254
vt 0.78125 0.48396254
vt 0.78125 1
vt 0.84375 1
vt 0.84375 0.48396254
vt 0.8125 0.48396254
vt 0.8125 1
vt 0.875 1
vt 0.875 0.48396254
vt 0.84375 0.48396254
vt 0.84375 1
vt 0.90625 1
vt 0.90625 0.48396254
vt 0.875 0.48396254
vt 0.875 1
vt 0.9375 1
vt 0.9375 0.48396254
vt 0.90625 0.48396254
vt 0.90625 1
vt 0.96875 1
vt 0.96875 0.48396254
vt 0.9375 0.48396254
vt 0.9375 1
vt 1 1
vt 0.96875 0.48396254
vt 0.96875 1
vn -0 0 -1
vn -0 0 -1
vn -0 0 -1
vn -0 0 -1
vn -0 0 -1
vn -0 0 -1
vn -0 0 -1
vn -0 0 -1
vn -0 0 -1
vn -0 0 -1
vn -0 0 -1
vn -0 0 -1
vn -0 0 -1
vn -0 0 -1
vn -0 0 -1
vn -0 0 -1
vn -0 0 -1
vn -0 0 -1
vn -0 0 -1
vn -0 0 -1
vn -0 0 -1
vn -0 0 -1
vn -0 0 -1
vn -0 0 -1
vn -0 0 -1
vn -0 0 -1
vn -0 0 -1
vn -0 0 -1
vn -0 0 -1
vn -0 0 -1
vn -0 0 -1
vn -0 0 -1
vn -0 0 -1
vn -0 0 -1
vn -0 0 -1
vn -0 0 -1
vn -0 0 -1
vn -0 0 -1
vn -0 0 -1
vn -0 0 -1
vn -0 0 -1
vn -0 0 -1
vn -0 0 -1
vn -0 0 -1
vn -0 0 -1
vn -0 0 -1
vn -0 0 -1
vn -0 0 -1
vn -0 0 -1
vn -0 0 -1
vn -0 0 -1
vn -0 0 -1
vn -0 0 -1
vn -0 0 -1
vn -0 0 -1
vn -0 0 -1
vn -0 0 -1
vn -0 0 -1
vn -0 0 -1
vn -0 0 -1
vn -0 0 -1
vn -0 0 -1
vn -0 0 -1
vn -0 0 -1
vn -0 0 -1
vn -0 0 -1
vn -0 0 -1
vn -0 0 -1
vn -0 0 -1
vn -0 0 -1
vn -0 0 -1
vn -0 0 -1
vn -0 0 -1
vn -0 0 -1
vn -0 0 -1
vn -0 0 -1
vn -0 0 -1
vn -0 0 -1
vn -0 0 -1
vn -0 0 -1
vn -0 0 -1
vn -0 0 -1
vn -0 0 -1
vn -0 0 -1
vn -0 0 -1
vn -0 0 -1
vn -0 0 -1
vn -0 0 -1
vn -0 0 -1
vn -0 0 -1
vn -0 0 -1
vn -0 0 -1
vn -0 0 -1
vn -0 0 -1
vn -0 0 -1
vn -0 0 -1
vn -0 0 -1
vn -0 0 -1
vn -0 0 -1
vn -0 0 -1
vn -0 0 -1
vn -0 0 -1
vn -0 0 -1
vn -0 0 -1
vn -0 0 -1
vn -0 0 -1
vn -0 0 -1
vn -0 0 -1
vn -0 0 -1
vn -0 0 -1
vn -0 0 -1
vn -0 0 -1
vn -0 0 -1
vn -0 0 -1
vn -0 0 -1
vn -0 0 -1
vn -0 0 -1
vn -0 0 -1
vn -0 0 -1
vn -0 0 -1
vn -0 0 -1
vn -0 0 -1
vn -0 0 -1
vn -0 0 -1
vn -0 0 -1
vn -0 0 -1
vn -0 0 -1
vn -0 0 -1
vn -0 0 -1
vn -0 0 -1
vn -0 0 -1
vn -0 0 -1
vn -0 0 -1
vn -0 0 -1
vn -0 0 -1
vn -0 0 -1
vn -0 0 -1
vn -0 0 -1
vn -0 0 -1
vn -0 0 -1
vn -0 0 -1
vn -0 0 -1
vn -0 0 -1
vn -0 0 -1
vn -0 0 -1
vn -0 0 -1
vn -0 0 -1
vn -0 0 -1
vn -0 0 -1
vn -0 0 -1
vn -0 0 -1
vn -0 0 -1
vn -0 0 -1
vn -0 0 -1
vn -0 0 -1
vn -0 0 -1
vn -0 0 -1
vn -0 0 -1
vn -0 0 -1
vn -0 0 -1
vn -0 0 -1
vn -0 0 -1
vn -0 0 -1
vn -0 0 -1
vn -0 0 -1
vn -0 0 -1
vn -0 0 -1
vn -0 0 -1
vn -0 0 -1
vn -0 0 -1
vn -0 0 -1
vn -0 0 -1
vn -0 0 -1
vn -0 0 -1
vn -0 0 -1
vn -0 0 -1
vn -0 0 -1
vn -0 0 -1
vn -0 0 -1
vn -0 0 -1
vn -0 0 -1
vn -0 0 -1
vn -0 0 -1
vn -0 0 -1
vn -0 0 -1
vn -0 0 -1
vn -0 0 -1
vn -0 0 -1
vn -0 0 -1
vn -0 0 -1
vn -0 0 -1
vn -0 0 -1
g FX_Ring_plane_02_0
f 3/3/3 2/2/2 1/1/1
f 4/4/4 3/3/3 1/1/1
f 5/5/5 3/3/3 4/4/4
f 6/6/6 5/5/5 4/4/4
f 7/7/7 5/5/5 6/6/6
f 8/8/8 7/7/7 6/6/6
f 9/9/9 7/7/7 8/8/8
f 10/10/10 9/9/9 8/8/8
f 11/11/11 9/9/9 10/10/10
f 12/12/12 11/11/11 10/10/10
f 13/13/13 11/11/11 12/12/12
f 14/14/14 13/13/13 12/12/12
f 15/15/15 13/13/13 14/14/14
f 16/16/16 15/15/15 14/14/14
f 17/17/17 15/15/15 16/16/16
f 18/18/18 17/17/17 16/16/16
f 19/19/19 17/17/17 18/18/18
f 20/20/20 19/19/19 18/18/18
f 21/21/21 19/19/19 20/20/20
f 22/22/22 21/21/21 20/20/20
f 23/23/23 21/21/21 22/22/22
f 24/24/24 23/23/23 22/22/22
f 25/25/25 23/23/23 24/24/24
f 26/26/26 25/25/25 24/24/24
f 27/27/27 25/25/25 26/26/26
f 28/28/28 27/27/27 26/26/26
f 29/29/29 27/27/27 28/28/28
f 30/30/30 29/29/29 28/28/28
f 31/31/31 29/29/29 30/30/30
f 32/32/32 31/31/31 30/30/30
f 33/33/33 31/31/31 32/32/32
f 34/34/34 33/33/33 32/32/32
f 35/35/35 33/33/33 34/34/34
f 36/36/36 35/35/35 34/34/34
f 37/37/37 35/35/35 36/36/36
f 38/38/38 37/37/37 36/36/36
f 39/39/39 37/37/37 38/38/38
f 40/40/40 39/39/39 38/38/38
f 41/41/41 39/39/39 40/40/40
f 42/42/42 41/41/41 40/40/40
f 43/43/43 41/41/41 42/42/42
f 44/44/44 43/43/43 42/42/42
f 45/45/45 43/43/43 44/44/44
f 46/46/46 45/45/45 44/44/44
f 47/47/47 45/45/45 46/46/46
f 48/48/48 47/47/47 46/46/46
f 49/49/49 47/47/47 48/48/48
f 50/50/50 49/49/49 48/48/48
f 51/51/51 49/49/49 50/50/50
f 52/52/52 51/51/51 50/50/50
f 53/53/53 51/51/51 52/52/52
f 54/54/54 53/53/53 52/52/52
f 55/55/55 53/53/53 54/54/54
f 56/56/56 55/55/55 54/54/54
f 57/57/57 55/55/55 56/56/56
f 58/58/58 57/57/57 56/56/56
f 59/59/59 57/57/57 58/58/58
f 60/60/60 59/59/59 58/58/58
f 61/61/61 59/59/59 60/60/60
f 62/62/62 61/61/61 60/60/60
f 63/63/63 61/61/61 62/62/62
f 64/64/64 63/63/63 62/62/62
f 65/65/65 63/63/63 64/64/64
f 66/66/66 65/65/65 64/64/64
f 66/66/66 68/68/68 67/67/67
f 69/69/69 66/66/66 67/67/67
f 72/72/72 71/71/71 70/70/70
f 73/73/73 72/72/72 70/70/70
f 76/76/76 75/75/75 74/74/74
f 77/77/77 76/76/76 74/74/74
f 80/80/80 79/79/79 78/78/78
f 81/81/81 80/80/80 78/78/78
f 84/84/84 83/83/83 82/82/82
f 85/85/85 84/84/84 82/82/82
f 88/88/88 87/87/87 86/86/86
f 89/89/89 88/88/88 86/86/86
f 92/92/92 91/91/91 90/90/90
f 93/93/93 92/92/92 90/90/90
f 96/96/96 95/95/95 94/94/94
f 97/97/97 96/96/96 94/94/94
f 100/100/100 99/99/99 98/98/98
f 101/101/101 100/100/100 98/98/98
f 104/104/104 103/103/103 102/102/102
f 105/105/105 104/104/104 102/102/102
f 108/108/108 107/107/107 106/106/106
f 109/109/109 108/108/108 106/106/106
f 112/112/112 111/111/111 110/110/110
f 113/113/113 112/112/112 110/110/110
f 116/116/116 115/115/115 114/114/114
f 117/117/117 116/116/116 114/114/114
f 120/120/120 119/119/119 118/118/118
f 121/121/121 120/120/120 118/118/118
f 124/124/124 123/123/123 122/122/122
f 125/125/125 124/124/124 122/122/122
f 128/128/128 127/127/127 126/126/126
f 129/129/129 128/128/128 126/126/126
f 132/132/132 131/131/131 130/130/130
f 133/133/133 132/132/132 130/130/130
f 136/136/136 135/135/135 134/134/134
f 137/137/137 136/136/136 134/134/134
f 140/140/140 139/139/139 138/138/138
f 141/141/141 140/140/140 138/138/138
f 144/144/144 143/143/143 142/142/142
f 145/145/145 144/144/144 142/142/142
f 148/148/148 147/147/147 146/146/146
f 149/149/149 148/148/148 146/146/146
f 152/152/152 151/151/151 150/150/150
f 153/153/153 152/152/152 150/150/150
f 156/156/156 155/155/155 154/154/154
f 157/157/157 156/156/156 154/154/154
f 160/160/160 159/159/159 158/158/158
f 161/161/161 160/160/160 158/158/158
f 164/164/164 163/163/163 162/162/162
f 165/165/165 164/164/164 162/162/162
f 168/168/168 167/167/167 166/166/166
f 169/169/169 168/168/168 166/166/166
f 172/172/172 171/171/171 170/170/170
f 173/173/173 172/172/172 170/170/170
f 176/176/176 175/175/175 174/174/174
f 177/177/177 176/176/176 174/174/174
f 180/180/180 179/179/179 178/178/178
f 181/181/181 180/180/180 178/178/178
f 184/184/184 183/183/183 182/182/182
f 185/185/185 184/184/184 182/182/182
f 188/188/188 187/187/187 186/186/186
f 189/189/189 188/188/188 186/186/186
f 192/192/192 191/191/191 190/190/190
f 191/191/191 1/1/1 190/190/190
