g Cylinder002
v 0.19509023 0.98078525 0
v 0.10425763 1.0585467 0
v 0.098017015 0.99518466 0
v 0.20751137 1.0432304 0
v 0.29028463 0.95694035 0
v 0.30876666 1.0178674 0
v 0.3826834 0.92387944 0
v 0.40704829 0.98270154 0
v 0.47139677 0.88192123 0
v 0.50140995 0.9380718 0
v 0.5555703 0.83146954 0
v 0.5909426 0.884408 0
v 0.63439333 0.7730104 0
v 0.67478424 0.8222268 0
v 0.7071068 0.70710677 0
v 0.7521273 0.75212723 0
v 0.7730105 0.6343933 0
v 0.8222268 0.6747841 0
v 0.83146954 0.55557024 0
v 0.88440794 0.59094256 0
v 0.88192123 0.47139674 0
v 0.9380718 0.5014099 0
v 0.92387944 0.38268343 0
v 0.9827015 0.40704837 0
v 0.95694035 0.29028466 0
v 1.0178673 0.3087667 0
v 0.9807852 0.19509032 0
v 1.0432303 0.20751148 0
v 0.99518466 0.098017134 0
v 1.0585465 0.10425777 0
v 1 0 0
v 1.0636684 3.709763E-08 0
v 0.9951843 -0.09802057 0
v 1.0585462 -0.10426136 0
v 0.98078465 -0.1950935 0
v 1.0432297 -0.20751476 0
v 0.95693946 -0.29028758 0
v 1.0178663 -0.3087697 0
v 0.9238784 -0.38268605 0
v 0.98270035 -0.40705103 0
v 0.88192 -0.47139907 0
v 0.9380705 -0.5014123 0
v 0.83146816 -0.5555723 0
v 0.8844064 -0.59094465 0
v 0.773009 -0.634395 0
v 0.82222533 -0.67478585 0
v 0.70710534 -0.7071082 0
v 0.7521256 -0.75212866 0
v 0.63439184 -0.7730116 0
v 0.67478263 -0.822228 0
v 0.5555689 -0.83147055 0
v 0.59094113 -0.88440895 0
v 0.47139543 -0.8819219 0
v 0.5014085 -0.9380724 0
v 0.38268226 -0.92388 0
v 0.40704712 -0.98270196 0
v 0.29028365 -0.9569406 0
v 0.30876556 -1.0178674 0
v 0.19508947 -0.9807854 0
v 0.20751053 -1.0432305 0
v 0.09801648 -0.9951848 0
v 0.104257055 -1.0585465 0
v -4.649123E-07 -1 0
v -4.8004114E-07 -1.0636684 0
v -0.0980174 -0.99518466 0
v -0.104258 -1.0585465 0
v -0.19509038 -0.9807852 0
v -0.20751148 -1.0432302 0
v -0.29028454 -0.95694035 0
v -0.30876648 -1.0178672 0
v -0.38268313 -0.9238797 0
v -0.40704796 -0.9827016 0
v -0.47139624 -0.8819215 0
v -0.5014093 -0.938072 0
v -0.55556965 -0.83147 0
v -0.59094185 -0.8844083 0
v -0.63439256 -0.773011 0
v -0.6747833 -0.8222273 0
v -0.707106 -0.7071076 0
v -0.7521264 -0.75212795 0
v -0.7730098 -0.6343941 0
v -0.8222261 -0.6747849 0
v -0.831469 -0.555571 0
v -0.8844074 -0.59094334 0
v -0.88192075 -0.47139758 0
v -0.93807125 -0.5014107 0
v -0.92387915 -0.38268432 0
v -0.98270106 -0.40704918 0
v -0.95694005 -0.29028556 0
v -1.017867 -0.30876753 0
v -0.98078513 -0.19509119 0
v -1.0432302 -0.20751227 0
v -0.9951846 -0.098017976 0
v -1.0585464 -0.10425859 0
v -1 -8.026785E-07 0
v -1.0636684 -8.166862E-07 0
v -0.9951848 0.098016374 0
v -1.0585467 0.10425696 0
v -0.9807854 0.19508961 0
v -1.0432305 0.20751071 0
v -0.95694053 0.29028404 0
v -1.0178674 0.308766 0
v -0.92387974 0.38268283 0
v -0.9827018 0.40704772 0
v -0.8819215 0.4713962 0
v -0.9380721 0.50140935 0
v -0.83146995 0.55556977 0
v -0.8844083 0.5909421 0
v -0.7730108 0.63439286 0
v -0.8222272 0.6747837 0
v -0.7071071 0.7071065 0
v -0.7521276 0.75212693 0
v -0.6343936 0.77301013 0
v -0.67478454 0.82222664 0
v -0.55557054 0.8314694 0
v -0.5909428 0.88440776 0
v -0.47139704 0.88192105 0
v -0.5014101 0.9380717 0
v -0.3826837 0.9238794 0
v -0.40704852 0.9827015 0
v -0.29028496 0.95694023 0
v -0.30876693 1.0178672 0
v -0.19509056 0.9807852 0
v -0.20751163 1.0432303 0
v -0.098017335 0.99518466 0
v -0.104257934 1.0585467 0
v -1.6292067E-07 1 0
v -1.5882215E-07 1.0636685 0
v 0.098017015 0.99518466 0
v 0.10425763 1.0585467 0
vt 0.98389065 0.0005
vt 0.99950004 0.99950004
vt 0.99950004 0.0005
vt 0.98389065 0.99950004
vt 0.96828127 0.0005
vt 0.96828127 0.99950004
vt 0.9526719 0.0005
vt 0.9526719 0.99950004
vt 0.93706256 0.0005
vt 0.93706256 0.99950004
vt 0.9214532 0.0005
vt 0.9214532 0.99950004
vt 0.9058438 0.0005
vt 0.9058438 0.99950004
vt 0.8902344 0.0005
vt 0.8902344 0.99950004
vt 0.874625 0.0005
vt 0.874625 0.99950004
vt 0.85901564 0.0005
vt 0.85901564 0.99950004
vt 0.84340626 0.0005
vt 0.84340626 0.99950004
vt 0.82779694 0.0005
vt 0.82779694 0.99950004
vt 0.81218755 0.0005
vt 0.81218755 0.99950004
vt 0.79657817 0.0005
vt 0.79657817 0.99950004
vt 0.7809688 0.0005
vt 0.7809688 0.99950004
vt 0.7653594 0.0005
vt 0.7653594 0.99950004
vt 0.7497494 0.0005
vt 0.7497494 0.99950004
vt 0.73414016 0.0005
vt 0.73414016 0.99950004
vt 0.71853083 0.0005
vt 0.71853083 0.99950004
vt 0.70292145 0.0005
vt 0.70292145 0.99950004
vt 0.6873121 0.0005
vt 0.6873121 0.99950004
vt 0.67170274 0.0005
vt 0.67170274 0.99950004
vt 0.6560934 0.0005
vt 0.6560934 0.99950004
vt 0.6404841 0.0005
vt 0.6404841 0.99950004
vt 0.6248747 0.0005
vt 0.6248747 0.99950004
vt 0.60926545 0.0005
vt 0.60926545 0.99950004
vt 0.59365606 0.0005
vt 0.59365606 0.99950004
vt 0.57804674 0.0005
vt 0.57804674 0.99950004
vt 0.56243736 0.0005
vt 0.56243736 0.99950004
vt 0.54682803 0.0005
vt 0.54682803 0.99950004
vt 0.53121865 0.0005
vt 0.53121865 0.99950004
vt 0.5156093 0.0005
vt 0.5156093 0.99950004
vt 0.49999997 0.0005
vt 0.49999997 0.99950004
vt 0.48439062 0.0005
vt 0.48439062 0.99950004
vt 0.4687813 0.0005
vt 0.4687813 0.99950004
vt 0.45317194 0.0005
vt 0.45317194 0.99950004
vt 0.43756258 0.0005
vt 0.43756258 0.99950004
vt 0.42195323 0.0005
vt 0.42195323 0.99950004
vt 0.4063439 0.0005
vt 0.4063439 0.99950004
vt 0.39073458 0.0005
vt 0.39073458 0.99950004
vt 0.37512517 0.0005
vt 0.37512517 0.99950004
vt 0.35951582 0.0005
vt 0.35951582 0.99950004
vt 0.34390643 0.0005
vt 0.34390643 0.99950004
vt 0.32829705 0.0005
vt 0.32829705 0.99950004
vt 0.31268764 0.0005
vt 0.31268764 0.99950004
vt 0.29707828 0.0005
vt 0.29707828 0.99950004
vt 0.28146893 0.0005
vt 0.28146893 0.99950004
vt 0.26585948 0.0005
vt 0.26585948 0.99950004
vt 0.25025013 0.0005
vt 0.25025013 0.99950004
vt 0.23464078 0.0005
vt 0.23464078 0.99950004
vt 0.21903136 0.0005
vt 0.21903136 0.99950004
vt 0.203422 0.0005
vt 0.203422 0.99950004
vt 0.18781261 0.0005
vt 0.18781261 0.99950004
vt 0.17220321 0.0005
vt 0.17220321 0.99950004
vt 0.15659383 0.0005
vt 0.15659383 0.99950004
vt 0.14098443 0.0005
vt 0.14098443 0.99950004
vt 0.12537509 0.0005
vt 0.12537509 0.99950004
vt 0.109765716 0.0005
vt 0.109765716 0.99950004
vt 0.09415631 0.0005
vt 0.09415631 0.99950004
vt 0.078546934 0.0005
vt 0.078546934 0.99950004
vt 0.06293756 0.0005
vt 0.06293756 0.99950004
vt 0.047328215 0.0005
vt 0.047328215 0.99950004
vt 0.03171881 0.0005
vt 0.03171881 0.99950004
vt 0.016109405 0.0005
vt 0.016109405 0.99950004
vt 0.0005 0.0005
vt 0.0005 0.99950004
vn -0 0 -1
vn -0 0 -1
vn -0 0 -1
vn -0 0 -1
vn -0 0 -1
vn -0 0 -1
vn -0 0 -1
vn -0 0 -1
vn -0 0 -1
vn -0 0 -1
vn -0 0 -1
vn -0 0 -1
vn -0 0 -1
vn -0 0 -1
vn -0 0 -1
vn -0 0 -1
vn -0 0 -1
vn -0 0 -1
vn -0 0 -1
vn -0 0 -1
vn -0 0 -1
vn -0 0 -1
vn -0 0 -1
vn -0 0 -1
vn -0 0 -1
vn -0 0 -1
vn -0 0 -1
vn -0 0 -1
vn -0 0 -1
vn -0 0 -1
vn -0 0 -1
vn -0 0 -1
vn -0 0 -1
vn -0 0 -1
vn -0 0 -1
vn -0 0 -1
vn -0 0 -1
vn -0 0 -1
vn -0 0 -1
vn -0 0 -1
vn -0 0 -1
vn -0 0 -1
vn -0 0 -1
vn -0 0 -1
vn -0 0 -1
vn -0 0 -1
vn -0 0 -1
vn -0 0 -1
vn -0 0 -1
vn -0 0 -1
vn -0 0 -1
vn -0 0 -1
vn -0 0 -1
vn -0 0 -1
vn -0 0 -1
vn -0 0 -1
vn -0 0 -1
vn -0 0 -1
vn -0 0 -1
vn -0 0 -1
vn -0 0 -1
vn -0 0 -1
vn -0 0 -1
vn -0 0 -1
vn -0 0 -1
vn -0 0 -1
vn -0 0 -1
vn -0 0 -1
vn -0 0 -1
vn -0 0 -1
vn -0 0 -1
vn -0 0 -1
vn -0 0 -1
vn -0 0 -1
vn -0 0 -1
vn -0 0 -1
vn -0 0 -1
vn -0 0 -1
vn -0 0 -1
vn -0 0 -1
vn -0 0 -1
vn -0 0 -1
vn -0 0 -1
vn -0 0 -1
vn -0 0 -1
vn -0 0 -1
vn -0 0 -1
vn -0 0 -1
vn -0 0 -1
vn -0 0 -1
vn -0 0 -1
vn -0 0 -1
vn -0 0 -1
vn -0 0 -1
vn -0 0 -1
vn -0 0 -1
vn -0 0 -1
vn -0 0 -1
vn -0 0 -1
vn -0 0 -1
vn -0 0 -1
vn -0 0 -1
vn -0 0 -1
vn -0 0 -1
vn -0 0 -1
vn -0 0 -1
vn -0 0 -1
vn -0 0 -1
vn -0 0 -1
vn -0 0 -1
vn -0 0 -1
vn -0 0 -1
vn -0 0 -1
vn -0 0 -1
vn -0 0 -1
vn -0 0 -1
vn -0 0 -1
vn -0 0 -1
vn -0 0 -1
vn -0 0 -1
vn -0 0 -1
vn -0 0 -1
vn -0 0 -1
vn -0 0 -1
vn -0 0 -1
vn -0 0 -1
vn -0 0 -1
vn -0 0 -1
vn -0 0 -1
vn -0 0 -1
g Cylinder002_0
f 3/3/3 2/2/2 1/1/1
f 2/2/2 4/4/4 1/1/1
f 1/1/1 4/4/4 5/5/5
f 4/4/4 6/6/6 5/5/5
f 5/5/5 6/6/6 7/7/7
f 6/6/6 8/8/8 7/7/7
f 7/7/7 8/8/8 9/9/9
f 8/8/8 10/10/10 9/9/9
f 9/9/9 10/10/10 11/11/11
f 10/10/10 12/12/12 11/11/11
f 11/11/11 12/12/12 13/13/13
f 12/12/12 14/14/14 13/13/13
f 13/13/13 14/14/14 15/15/15
f 14/14/14 16/16/16 15/15/15
f 15/15/15 16/16/16 17/17/17
f 16/16/16 18/18/18 17/17/17
f 17/17/17 18/18/18 19/19/19
f 18/18/18 20/20/20 19/19/19
f 19/19/19 20/20/20 21/21/21
f 20/20/20 22/22/22 21/21/21
f 21/21/21 22/22/22 23/23/23
f 22/22/22 24/24/24 23/23/23
f 23/23/23 24/24/24 25/25/25
f 24/24/24 26/26/26 25/25/25
f 25/25/25 26/26/26 27/27/27
f 26/26/26 28/28/28 27/27/27
f 27/27/27 28/28/28 29/29/29
f 28/28/28 30/30/30 29/29/29
f 29/29/29 30/30/30 31/31/31
f 30/30/30 32/32/32 31/31/31
f 31/31/31 32/32/32 33/33/33
f 32/32/32 34/34/34 33/33/33
f 33/33/33 34/34/34 35/35/35
f 34/34/34 36/36/36 35/35/35
f 35/35/35 36/36/36 37/37/37
f 36/36/36 38/38/38 37/37/37
f 37/37/37 38/38/38 39/39/39
f 38/38/38 40/40/40 39/39/39
f 39/39/39 40/40/40 41/41/41
f 40/40/40 42/42/42 41/41/41
f 41/41/41 42/42/42 43/43/43
f 42/42/42 44/44/44 43/43/43
f 43/43/43 44/44/44 45/45/45
f 44/44/44 46/46/46 45/45/45
f 45/45/45 46/46/46 47/47/47
f 46/46/46 48/48/48 47/47/47
f 47/47/47 48/48/48 49/49/49
f 48/48/48 50/50/50 49/49/49
f 49/49/49 50/50/50 51/51/51
f 50/50/50 52/52/52 51/51/51
f 51/51/51 52/52/52 53/53/53
f 52/52/52 54/54/54 53/53/53
f 53/53/53 54/54/54 55/55/55
f 54/54/54 56/56/56 55/55/55
f 55/55/55 56/56/56 57/57/57
f 56/56/56 58/58/58 57/57/57
f 57/57/57 58/58/58 59/59/59
f 58/58/58 60/60/60 59/59/59
f 59/59/59 60/60/60 61/61/61
f 60/60/60 62/62/62 61/61/61
f 61/61/61 62/62/62 63/63/63
f 62/62/62 64/64/64 63/63/63
f 63/63/63 64/64/64 65/65/65
f 64/64/64 66/66/66 65/65/65
f 65/65/65 66/66/66 67/67/67
f 66/66/66 68/68/68 67/67/67
f 67/67/67 68/68/68 69/69/69
f 68/68/68 70/70/70 69/69/69
f 69/69/69 70/70/70 71/71/71
f 70/70/70 72/72/72 71/71/71
f 71/71/71 72/72/72 73/73/73
f 72/72/72 74/74/74 73/73/73
f 73/73/73 74/74/74 75/75/75
f 74/74/74 76/76/76 75/75/75
f 75/75/75 76/76/76 77/77/77
f 76/76/76 78/78/78 77/77/77
f 77/77/77 78/78/78 79/79/79
f 78/78/78 80/80/80 79/79/79
f 79/79/79 80/80/80 81/81/81
f 80/80/80 82/82/82 81/81/81
f 81/81/81 82/82/82 83/83/83
f 82/82/82 84/84/84 83/83/83
f 83/83/83 84/84/84 85/85/85
f 84/84/84 86/86/86 85/85/85
f 85/85/85 86/86/86 87/87/87
f 86/86/86 88/88/88 87/87/87
f 87/87/87 88/88/88 89/89/89
f 88/88/88 90/90/90 89/89/89
f 89/89/89 90/90/90 91/91/91
f 90/90/90 92/92/92 91/91/91
f 91/91/91 92/92/92 93/93/93
f 92/92/92 94/94/94 93/93/93
f 93/93/93 94/94/94 95/95/95
f 94/94/94 96/96/96 95/95/95
f 95/95/95 96/96/96 97/97/97
f 96/96/96 98/98/98 97/97/97
f 97/97/97 98/98/98 99/99/99
f 98/98/98 100/100/100 99/99/99
f 99/99/99 100/100/100 101/101/101
f 100/100/100 102/102/102 101/101/101
f 101/101/101 102/102/102 103/103/103
f 102/102/102 104/104/104 103/103/103
f 103/103/103 104/104/104 105/105/105
f 104/104/104 106/106/106 105/105/105
f 105/105/105 106/106/106 107/107/107
f 106/106/106 108/108/108 107/107/107
f 107/107/107 108/108/108 109/109/109
f 108/108/108 110/110/110 109/109/109
f 109/109/109 110/110/110 111/111/111
f 110/110/110 112/112/112 111/111/111
f 111/111/111 112/112/112 113/113/113
f 112/112/112 114/114/114 113/113/113
f 113/113/113 114/114/114 115/115/115
f 114/114/114 116/116/116 115/115/115
f 115/115/115 116/116/116 117/117/117
f 116/116/116 118/118/118 117/117/117
f 117/117/117 118/118/118 119/119/119
f 118/118/118 120/120/120 119/119/119
f 119/119/119 120/120/120 121/121/121
f 120/120/120 122/122/122 121/121/121
f 121/121/121 122/122/122 123/123/123
f 122/122/122 124/124/124 123/123/123
f 123/123/123 124/124/124 125/125/125
f 124/124/124 126/126/126 125/125/125
f 125/125/125 126/126/126 127/127/127
f 126/126/126 128/128/128 127/127/127
f 127/127/127 128/128/128 129/129/129
f 128/128/128 130/130/130 129/129/129
