g FX_MESH_SCN_Spot_01
v -2.0672853 -1.9656802E-07 0.72954476
v -2.075198 -2.0270414E-07 0.7867482
v -2.0751982 -1.96568E-07 0.74908435
v -2.052907 -1.9656821E-07 0.71134216
v -2.0270033 -1.9656808E-07 0.69809675
v -1.9841129 -1.9656801E-07 0.69518447
v -1.9412223 -1.9656808E-07 0.69809675
v -1.9153211 -1.9656821E-07 0.71134216
v -1.900941 -1.9656802E-07 0.72954476
v -1.8930268 -2.0270414E-07 0.7867482
v -1.8930273 -1.96568E-07 0.74908435
v -1.8930261 -2.6882162E-07 1.6500152
v -2.075197 -2.6882162E-07 1.6500152
v -1.8930264 -2.7000848E-07 1.6573001
v -2.0751972 -2.7000848E-07 1.6573001
v -1.8914372 -2.7452353E-07 1.6850133
v -2.0723882 -2.779528E-07 1.7060623
v -1.8866206 -2.7896473E-07 1.7122731
v -2.0638187 -2.8585188E-07 1.7545465
v -1.8787713 -2.83209E-07 1.7383245
v -2.0498283 -2.9341686E-07 1.8009796
v -1.8680651 -2.872352E-07 1.763037
v -2.0307791 -3.005811E-07 1.8449538
v -1.8546772 -2.9101508E-07 1.7862376
v -2.0070353 -3.072853E-07 1.8861036
v -1.8387932 -2.945153E-07 1.8077221
v -1.9789491 -3.134748E-07 1.9240946
v -1.8206146 -2.977004E-07 1.8272718
v -1.9468572 -3.1909767E-07 1.9586074
v -1.8003573 -3.0053423E-07 1.8446656
v -1.9110818 -3.241022E-07 1.9893246
v -1.7782432 -3.029823E-07 1.8596922
v -1.8719401 -3.2843505E-07 2.01592
v -1.7544873 -3.0501275E-07 1.8721546
v -1.8297546 -3.320404E-07 2.0380495
v -1.7292851 -3.0659606E-07 1.8818733
v -1.7848703 -3.3486018E-07 2.0553567
v -1.702795 -3.0770408E-07 1.8886741
v -1.7376646 -3.3683477E-07 2.067477
v -1.6751313 -3.0830734E-07 1.8923768
v -1.6885638 -3.37906E-07 2.074052
v -1.654975 -3.084131E-07 1.8930261
v -1.654975 -3.380925E-07 2.075197
v -1.6469427 -3.084131E-07 1.8930261
v -1.6469427 -3.380925E-07 2.075197
v -0.75683564 -3.380926E-07 2.0751977
v -0.75683564 -3.084132E-07 1.8930268
v -0.7226388 -3.3271215E-07 2.0644925
v -0.7415334 -3.3809263E-07 2.075198
v -0.70688254 -3.3067286E-07 2.0503905
v -0.69904983 -3.269631E-07 2.027342
v -0.69590086 -3.2325292E-07 1.9841124
v -0.69904983 -3.1954315E-07 1.9408833
v -0.70688254 -3.158332E-07 1.9178352
v -0.7226388 -3.137939E-07 1.903733
v -0.7415334 -3.0841323E-07 1.8930268
vt 0.9999997 0.875
vt 0.7346937 0.12499999
vt 0.9999997 1
vt 0.9999997 0.75
vt 0.9999997 0.625
vt 0.9999997 0.5
vt 0.9999997 0.375
vt 0.9999997 0.25
vt 0.9999997 0.125
vt 0.6530611 0
vt 0.9999997 0
vt 0.63265294 0
vt 0.63265294 0.5
vt 0.6122448 0
vt 0.6122448 0.5
vt 0.59183663 0
vt 0.59183663 0.5
vt 0.5714285 0
vt 0.5714285 0.5
vt 0.5510203 0
vt 0.5510203 0.5
vt 0.5306122 0
vt 0.5306122 0.5
vt 0.510204 0
vt 0.510204 0.5
vt 0.48979583 0
vt 0.48979583 0.5
vt 0.46938768 0
vt 0.46938768 0.5
vt 0.44897953 0
vt 0.44897953 0.5
vt 0.42857137 0
vt 0.42857137 0.5
vt 0.40816322 0
vt 0.40816322 0.5
vt 0.38775507 0
vt 0.38775507 0.5
vt 0.3673469 0
vt 0.3673469 0.5
vt 0.34693876 0
vt 0.34693876 0.5
vt 0.3265306 0
vt 0.3265306 0.5
vt 0.30612245 0
vt 0.30612245 0.5
vt 0.29591838 0.75
vt 0.15306123 0
vt 0.25 0.875
vt 0.2857143 1
vt 0.21428573 0.75
vt 0.17857143 0.625
vt 0.14285715 0.5
vt 0.107142866 0.375
vt 0.07142857 0.25
vt 0.03571427 0.125
vt 0 0
vn 1.8521082E-07 1 1.3288769E-07
vn -0 1 0
vn 4.0230242E-07 1 1.6291719E-07
vn -0 1 1.0066407E-07
vn -0 1 0
vn -0 1 0
vn -0 1 0
vn -0 1 0
vn -0 1 0
vn -0 1 0
vn -0 1 1.0881567E-07
vn -0 1 1.197548E-07
vn -0 1 1.1975564E-07
vn -0 1 1.6292043E-07
vn -0 1 1.6292043E-07
vn -0 1 1.6292039E-07
vn -0 1 1.629204E-07
vn -0 1 1.6292078E-07
vn -0 1 1.6292078E-07
vn -0 1 1.6292064E-07
vn -0 1 1.6292063E-07
vn -0 1 1.6292073E-07
vn -0 1 1.6292071E-07
vn -0 1 1.629206E-07
vn -0 1 1.629206E-07
vn -0 1 1.629206E-07
vn -0 1 1.629206E-07
vn -0 1 1.6292105E-07
vn -0 1 1.6292105E-07
vn -0 1 1.6292057E-07
vn -0 1 1.6292056E-07
vn -0 1 1.6292037E-07
vn -0 1 1.629204E-07
vn -0 1 1.6292078E-07
vn -0 1 1.629208E-07
vn -0 1 1.6292078E-07
vn -0 1 1.6292078E-07
vn -0 1 1.629207E-07
vn -0 1 1.6292068E-07
vn -0 1 1.6292051E-07
vn -0 1 1.6292053E-07
vn -0 1 1.6292051E-07
vn -0 1 1.629205E-07
vn -0 1 1.6292056E-07
vn -0 1 1.6292056E-07
vn -0 1 1.6727225E-07
vn -0 1 1.7034905E-07
vn -0 1 1.6117635E-07
vn -1.0361137E-07 1 1.7162384E-07
vn -0 1 1.4425866E-07
vn -0 1 1.4133519E-07
vn 1.0831189E-07 1 0
vn 1.2039462E-07 1 0
vn -0 1 1.1439899E-07
vn 1.5987231E-07 1 0
vn -0 1 5.0256966E-07
g FX_MESH_SCN_Spot_01_0
f 3/3/3 2/2/2 1/1/1
f 4/4/4 1/1/1 2/2/2
f 5/5/5 4/4/4 2/2/2
f 6/6/6 5/5/5 2/2/2
f 6/6/6 2/2/2 7/7/7
f 8/8/8 7/7/7 2/2/2
f 9/9/9 8/8/8 2/2/2
f 9/9/9 2/2/2 10/10/10
f 11/11/11 9/9/9 10/10/10
f 10/10/10 2/2/2 12/12/12
f 2/2/2 13/13/13 12/12/12
f 12/12/12 13/13/13 14/14/14
f 13/13/13 15/15/15 14/14/14
f 14/14/14 15/15/15 16/16/16
f 15/15/15 17/17/17 16/16/16
f 16/16/16 17/17/17 18/18/18
f 17/17/17 19/19/19 18/18/18
f 18/18/18 19/19/19 20/20/20
f 19/19/19 21/21/21 20/20/20
f 20/20/20 21/21/21 22/22/22
f 21/21/21 23/23/23 22/22/22
f 22/22/22 23/23/23 24/24/24
f 23/23/23 25/25/25 24/24/24
f 24/24/24 25/25/25 26/26/26
f 25/25/25 27/27/27 26/26/26
f 26/26/26 27/27/27 28/28/28
f 27/27/27 29/29/29 28/28/28
f 28/28/28 29/29/29 30/30/30
f 29/29/29 31/31/31 30/30/30
f 30/30/30 31/31/31 32/32/32
f 31/31/31 33/33/33 32/32/32
f 32/32/32 33/33/33 34/34/34
f 33/33/33 35/35/35 34/34/34
f 34/34/34 35/35/35 36/36/36
f 35/35/35 37/37/37 36/36/36
f 36/36/36 37/37/37 38/38/38
f 37/37/37 39/39/39 38/38/38
f 38/38/38 39/39/39 40/40/40
f 39/39/39 41/41/41 40/40/40
f 40/40/40 41/41/41 42/42/42
f 41/41/41 43/43/43 42/42/42
f 42/42/42 43/43/43 44/44/44
f 43/43/43 45/45/45 44/44/44
f 45/45/45 46/46/46 44/44/44
f 46/46/46 47/47/47 44/44/44
f 48/48/48 47/47/47 46/46/46
f 49/49/49 48/48/48 46/46/46
f 48/48/48 50/50/50 47/47/47
f 50/50/50 51/51/51 47/47/47
f 52/52/52 47/47/47 51/51/51
f 53/53/53 47/47/47 52/52/52
f 54/54/54 47/47/47 53/53/53
f 55/55/55 47/47/47 54/54/54
f 56/56/56 47/47/47 55/55/55
